<svg width="2075" height="792" viewBox="0 0 2075 792" fill="none" xmlns="http://www.w3.org/2000/svg">
<g clip-path="url(#clip0_1162_8565)">
<mask id="path-1-inside-1_1162_8565" fill="white">
<path d="M1544.39 795.67C1573.83 682.423 1638.57 577.299 1736.67 498.236C1837.52 416.963 1957.78 375.999 2077.98 373.248L1339.26 1.00227L1544.39 795.67Z"/>
</mask>
<path d="M1544.39 795.67L1547.3 796.425L1544.38 807.633L1541.49 796.42L1544.39 795.67ZM1736.67 498.236L1734.79 495.9V495.9L1736.67 498.236ZM2077.98 373.248L2079.33 370.569L2078.05 376.247L2077.98 373.248ZM1339.26 1.00227L1336.36 1.7521L1334.7 -4.65413L1340.61 -1.67681L1339.26 1.00227ZM1544.39 795.67L1541.49 794.915C1571.08 681.066 1636.17 575.381 1734.79 495.9L1736.67 498.236L1738.55 500.572C1640.97 579.217 1576.58 683.779 1547.3 796.425L1544.39 795.67ZM1736.67 498.236L1734.79 495.9C1836.17 414.198 1957.08 373.014 2077.91 370.248L2077.98 373.248L2078.05 376.247C1958.49 378.984 1838.87 419.728 1738.55 500.572L1736.67 498.236ZM2077.98 373.248L2076.63 375.927L1337.91 3.68135L1339.26 1.00227L1340.61 -1.67681L2079.33 370.569L2077.98 373.248ZM1339.26 1.00227L1342.16 0.252448L1547.3 794.92L1544.39 795.67L1541.49 796.42L1336.36 1.7521L1339.26 1.00227Z" fill="#FCBE6C" mask="url(#path-1-inside-1_1162_8565)"/>
</g>
<g clip-path="url(#clip1_1162_8565)">
<mask id="path-3-inside-2_1162_8565" fill="white">
<path d="M536.212 795.67C506.773 682.422 442.038 577.297 343.932 498.234C243.084 416.961 122.821 375.996 2.625 373.245L741.344 0.999385L536.212 795.67Z"/>
</mask>
<path d="M536.212 795.67L533.308 796.425L536.222 807.633L539.117 796.42L536.212 795.67ZM343.932 498.234L345.815 495.898V495.898L343.932 498.234ZM2.625 373.245L1.27499 370.566L2.55633 376.244L2.625 373.245ZM741.344 0.999385L744.249 1.74921L745.903 -4.65701L739.994 -1.67969L741.344 0.999385ZM536.212 795.67L539.115 794.915C509.52 681.065 444.439 575.379 345.815 495.898L343.932 498.234L342.05 500.57C439.638 579.216 504.026 683.778 533.308 796.425L536.212 795.67ZM343.932 498.234L345.815 495.898C244.434 414.196 123.527 373.012 2.69366 370.245L2.625 373.245L2.55633 376.244C122.114 378.981 241.734 419.726 342.05 500.57L343.932 498.234ZM2.625 373.245L3.975 375.924L742.694 3.67846L741.344 0.999385L739.994 -1.67969L1.27499 370.566L2.625 373.245ZM741.344 0.999385L738.439 0.249562L533.307 794.92L536.212 795.67L539.117 796.42L744.249 1.74921L741.344 0.999385Z" fill="#FCBE6C" mask="url(#path-3-inside-2_1162_8565)"/>
</g>
<defs>
<clipPath id="clip0_1162_8565">
<rect width="792" height="1038" fill="white" transform="matrix(4.37114e-08 -1 -1 -4.37114e-08 2074.99 792)"/>
</clipPath>
<clipPath id="clip1_1162_8565">
<rect width="792" height="1038" fill="white" transform="translate(3.46194e-05 792) rotate(-90)"/>
</clipPath>
</defs>
</svg>
