<svg width="1920" height="1853" viewBox="0 0 1920 1853" fill="none" xmlns="http://www.w3.org/2000/svg">
<path d="M1920 562.097L1659.39 926.022L1920 1289.95L1489.64 1852.05L959.999 1673.81L430.362 1852.05L0 1289.95L260.61 926.022L0 562.097L430.362 0L959.999 178.235L1489.64 0L1920 562.097ZM3.74219 1289.88L431.472 1848.54L955.339 1672.24L811.451 1623.82L821.173 1014.55L412.207 1137.72L262.455 928.599L3.74219 1289.88ZM1507.79 1137.72L1098.83 1014.54L1108.55 1623.82L964.66 1672.24L1488.53 1848.54L1916.26 1289.88L1657.54 928.599L1507.79 1137.72ZM824.214 1013.63L814.511 1621.71L960 1670.67L1105.49 1621.71L1095.78 1013.63L960 972.734L824.214 1013.63ZM264.3 926.022L413.406 1134.24L821.223 1011.41L822.586 926.022L821.223 840.631L413.406 717.806L264.3 926.022ZM1098.78 840.631L1097.41 926.021L1098.78 1011.41L1506.59 1134.24L1655.7 926.022L1506.59 717.806L1098.78 840.631ZM965.175 971.176L1095.73 1010.5L1094.49 932.23L965.175 971.176ZM824.265 1010.5L954.825 971.176L825.514 932.23L824.265 1010.5ZM825.663 922.888L825.612 926.022L825.663 929.158L959.999 969.617L1094.34 929.158L1094.39 926.021L1094.34 922.888L959.999 882.428L825.663 922.888ZM964.66 179.804L1108.55 228.226L1098.83 837.5L1507.79 714.329L1657.54 923.447L1916.26 562.17L1488.53 3.50977L964.66 179.804ZM3.74219 562.17L262.455 923.447L412.207 714.329L821.173 837.5L811.451 228.226L955.339 179.804L431.472 3.50977L3.74219 562.17ZM965.173 880.869L1094.49 919.815L1095.73 841.547L965.173 880.869ZM825.514 919.815L954.824 880.869L824.265 841.547L825.514 919.815ZM814.511 230.333L824.214 838.416L959.998 879.311L1095.78 838.415L1105.49 230.333L960 181.372L814.511 230.333Z" fill="#FCBE6C"/>
</svg>
