<svg width="1920" height="2931" viewBox="0 0 1920 2931" fill="none" xmlns="http://www.w3.org/2000/svg">
<g clip-path="url(#clip0_1105_7852)">
<path d="M-101.006 999.156C-59.411 1109.24 66.6512 1161.46 173.904 1113.03C125.476 1220.28 177.692 1346.34 287.775 1387.94C177.692 1429.53 125.476 1555.59 173.904 1662.85C66.6516 1614.42 -59.4108 1666.63 -101.006 1776.72C-142.601 1666.63 -268.662 1614.42 -375.915 1662.85C-327.486 1555.59 -379.702 1429.53 -489.786 1387.94C-379.702 1346.34 -327.486 1220.28 -375.915 1113.03C-268.662 1161.46 -142.601 1109.24 -101.006 999.156Z" stroke="#FCBE6C" stroke-width="3"/>
<mask id="path-2-inside-1_1105_7852" fill="white">
<path d="M658.692 587.707C874.628 587.707 1049.68 762.757 1049.68 978.692C1049.68 1194.63 874.628 1369.68 658.692 1369.68C442.757 1369.68 267.707 1194.63 267.707 978.692C267.707 762.757 442.757 587.707 658.692 587.707Z"/>
</mask>
<path d="M658.692 587.707V584.707V584.707V587.707ZM1049.68 978.692H1052.68V978.692H1049.68ZM658.692 1369.68V1372.68V1372.68V1369.68ZM267.707 978.692H264.707V978.692H267.707ZM658.692 587.707V590.707C872.971 590.707 1046.68 764.414 1046.68 978.692H1049.68H1052.68C1052.68 761.1 876.285 584.707 658.692 584.707V587.707ZM1049.68 978.692H1046.68C1046.68 1192.97 872.971 1366.68 658.692 1366.68V1369.68V1372.68C876.285 1372.68 1052.68 1196.28 1052.68 978.692H1049.68ZM658.692 1369.68V1366.68C444.414 1366.68 270.707 1192.97 270.707 978.692H267.707H264.707C264.707 1196.28 441.1 1372.68 658.692 1372.68V1369.68ZM267.707 978.692H270.707C270.707 764.414 444.414 590.707 658.692 590.707V587.707V584.707C441.1 584.707 264.707 761.1 264.707 978.692H267.707Z" fill="#FCBE6C" mask="url(#path-2-inside-1_1105_7852)"/>
</g>
<g clip-path="url(#clip1_1105_7852)">
<path d="M2021.01 999.156C1979.41 1109.24 1853.35 1161.46 1746.1 1113.03C1794.52 1220.28 1742.31 1346.34 1632.22 1387.94C1742.31 1429.53 1794.52 1555.59 1746.1 1662.85C1853.35 1614.42 1979.41 1666.63 2021.01 1776.72C2062.6 1666.63 2188.66 1614.42 2295.92 1662.85C2247.49 1555.59 2299.7 1429.53 2409.79 1387.94C2299.7 1346.34 2247.49 1220.28 2295.92 1113.03C2188.66 1161.46 2062.6 1109.24 2021.01 999.156Z" stroke="#FCBE6C" stroke-width="3"/>
<mask id="path-5-inside-2_1105_7852" fill="white">
<path d="M1261.31 587.707C1045.37 587.707 870.322 762.757 870.322 978.692C870.322 1194.63 1045.37 1369.68 1261.31 1369.68C1477.24 1369.68 1652.29 1194.63 1652.29 978.692C1652.29 762.757 1477.24 587.707 1261.31 587.707Z"/>
</mask>
<path d="M1261.31 587.707V584.707V584.707V587.707ZM870.322 978.692H867.322V978.692H870.322ZM1261.31 1369.68V1372.68V1372.68V1369.68ZM1652.29 978.692H1655.29V978.692H1652.29ZM1261.31 587.707V590.707C1047.03 590.707 873.322 764.414 873.322 978.692H870.322H867.322C867.322 761.1 1043.72 584.707 1261.31 584.707V587.707ZM870.322 978.692H873.322C873.322 1192.97 1047.03 1366.68 1261.31 1366.68V1369.68V1372.68C1043.72 1372.68 867.322 1196.28 867.322 978.692H870.322ZM1261.31 1369.68V1366.68C1475.59 1366.68 1649.29 1192.97 1649.29 978.692H1652.29H1655.29C1655.29 1196.28 1478.9 1372.68 1261.31 1372.68V1369.68ZM1652.29 978.692H1649.29C1649.29 764.414 1475.59 590.707 1261.31 590.707V587.707V584.707C1478.9 584.707 1655.29 761.1 1655.29 978.692H1652.29Z" fill="#FCBE6C" mask="url(#path-5-inside-2_1105_7852)"/>
</g>
<g clip-path="url(#clip2_1105_7852)">
<path d="M2021.01 1437.84C1979.41 1327.76 1853.35 1275.54 1746.1 1323.97C1794.52 1216.72 1742.31 1090.66 1632.22 1049.06C1742.31 1007.47 1794.52 881.407 1746.1 774.154C1853.35 822.582 1979.41 770.366 2021.01 660.283C2062.6 770.366 2188.66 822.583 2295.92 774.154C2247.49 881.407 2299.7 1007.47 2409.79 1049.06C2299.7 1090.66 2247.49 1216.72 2295.92 1323.97C2188.66 1275.54 2062.6 1327.76 2021.01 1437.84Z" stroke="#FCBE6C" stroke-width="3"/>
<mask id="path-8-inside-3_1105_7852" fill="white">
<path d="M1261.31 1849.29C1045.37 1849.29 870.322 1674.24 870.322 1458.31C870.322 1242.37 1045.37 1067.32 1261.31 1067.32C1477.24 1067.32 1652.29 1242.37 1652.29 1458.31C1652.29 1674.24 1477.24 1849.29 1261.31 1849.29Z"/>
</mask>
<path d="M1261.31 1849.29V1852.29V1852.29V1849.29ZM870.322 1458.31H867.322V1458.31H870.322ZM1261.31 1067.32V1064.32V1064.32V1067.32ZM1652.29 1458.31H1655.29V1458.31H1652.29ZM1261.31 1849.29V1846.29C1047.03 1846.29 873.322 1672.59 873.322 1458.31H870.322H867.322C867.322 1675.9 1043.72 1852.29 1261.31 1852.29V1849.29ZM870.322 1458.31H873.322C873.322 1244.03 1047.03 1070.32 1261.31 1070.32V1067.32V1064.32C1043.72 1064.32 867.322 1240.72 867.322 1458.31H870.322ZM1261.31 1067.32V1070.32C1475.59 1070.32 1649.29 1244.03 1649.29 1458.31H1652.29H1655.29C1655.29 1240.72 1478.9 1064.32 1261.31 1064.32V1067.32ZM1652.29 1458.31H1649.29C1649.29 1672.59 1475.59 1846.29 1261.31 1846.29V1849.29V1852.29C1478.9 1852.29 1655.29 1675.9 1655.29 1458.31H1652.29Z" fill="#FCBE6C" mask="url(#path-8-inside-3_1105_7852)"/>
</g>
<g clip-path="url(#clip3_1105_7852)">
<path d="M-101.006 1437.84C-59.411 1327.76 66.6512 1275.54 173.904 1323.97C125.476 1216.72 177.692 1090.66 287.775 1049.06C177.692 1007.47 125.476 881.407 173.904 774.154C66.6516 822.582 -59.4108 770.366 -101.006 660.283C-142.601 770.366 -268.662 822.583 -375.915 774.154C-327.486 881.407 -379.702 1007.47 -489.786 1049.06C-379.702 1090.66 -327.486 1216.72 -375.915 1323.97C-268.662 1275.54 -142.601 1327.76 -101.006 1437.84Z" stroke="#FCBE6C" stroke-width="3"/>
<mask id="path-11-inside-4_1105_7852" fill="white">
<path d="M658.692 1849.29C874.628 1849.29 1049.68 1674.24 1049.68 1458.31C1049.68 1242.37 874.628 1067.32 658.692 1067.32C442.757 1067.32 267.707 1242.37 267.707 1458.31C267.707 1674.24 442.757 1849.29 658.692 1849.29Z"/>
</mask>
<path d="M658.692 1849.29V1852.29V1852.29V1849.29ZM1049.68 1458.31H1052.68V1458.31H1049.68ZM658.692 1067.32V1064.32V1064.32V1067.32ZM267.707 1458.31H264.707V1458.31H267.707ZM658.692 1849.29V1846.29C872.971 1846.29 1046.68 1672.59 1046.68 1458.31H1049.68H1052.68C1052.68 1675.9 876.285 1852.29 658.692 1852.29V1849.29ZM1049.68 1458.31H1046.68C1046.68 1244.03 872.971 1070.32 658.692 1070.32V1067.32V1064.32C876.285 1064.32 1052.68 1240.72 1052.68 1458.31H1049.68ZM658.692 1067.32V1070.32C444.414 1070.32 270.707 1244.03 270.707 1458.31H267.707H264.707C264.707 1240.72 441.1 1064.32 658.692 1064.32V1067.32ZM267.707 1458.31H270.707C270.707 1672.59 444.414 1846.29 658.692 1846.29V1849.29V1852.29C441.1 1852.29 264.707 1675.9 264.707 1458.31H267.707Z" fill="#FCBE6C" mask="url(#path-11-inside-4_1105_7852)"/>
</g>
<defs>
<clipPath id="clip0_1105_7852">
<rect width="1774.43" height="1712.5" fill="white" transform="translate(-814 -494)"/>
</clipPath>
<clipPath id="clip1_1105_7852">
<rect width="1774.43" height="1712.5" fill="white" transform="matrix(-1 0 0 1 2734 -494)"/>
</clipPath>
<clipPath id="clip2_1105_7852">
<rect width="1774.43" height="1712.5" fill="white" transform="matrix(-1 0 0 -1 2734 2931)"/>
</clipPath>
<clipPath id="clip3_1105_7852">
<rect width="1774.43" height="1712.5" fill="white" transform="matrix(1 0 0 -1 -814 2931)"/>
</clipPath>
</defs>
</svg>
