<svg xmlns="http://www.w3.org/2000/svg" width="125" height="100" fill="none" viewBox="0 0 125 100"><path fill="#fff" stroke="#000" stroke-width=".5" d="M65.25 76.934c.018.403.035.798.035 1.192 0 11.742-11.143 21.374-25.083 21.374H7.31C3.466 99.5.5 96.86.5 93.75s2.966-5.749 6.81-5.749h1.096c4.346 0 7.29-3.98 6.847-7.669h-.001l-.058-.546a18 18 0 0 1-.075-1.66c0-11.408 10.56-20.846 23.94-21.347zm41.716-74.632c4.072-2.62 9.754-2.354 13.466.614 3.686 2.948 4.353 7.683 1.649 11.26L85.147 63.02c-3.367 4.42-8.775 7.37-14.813 8.158L44.362 51.187c.128-5.4 3.06-10.48 8.04-13.872l.496-.328z"/></svg>