<svg width="32" height="32" viewBox="0 0 154 174" fill="none" xmlns="http://www.w3.org/2000/svg">
<path d="M35.1614 147.35C36.8639 148.542 38.5088 148.998 40.0962 148.718C41.6671 148.345 43.0486 147.307 44.2407 145.605L78.2162 97.0863C79.4468 95.329 79.9496 93.6759 79.7246 92.1271C79.4448 90.5399 78.4536 89.1503 76.7511 87.9583C75.0486 86.7663 73.4312 86.3294 71.8987 86.6478C70.3114 86.9277 68.9024 87.9463 67.6718 89.7036L33.6963 138.222C32.5042 139.924 32.0014 141.577 32.1879 143.181C32.4129 144.73 33.404 146.12 35.1614 147.35Z" fill="black"/>
<path d="M117.918 147.35C116.215 148.542 114.57 148.998 112.983 148.718C111.412 148.345 110.03 147.307 108.838 145.605L74.8629 97.0863C73.6323 95.329 73.1295 93.676 73.3545 92.1272C73.6343 90.5399 74.6255 89.1503 76.328 87.9583C78.0305 86.7663 79.6479 86.3294 81.1804 86.6478C82.7678 86.9277 84.1767 87.9463 85.4073 89.7036L119.383 138.222C120.575 139.924 121.078 141.577 120.891 143.181C120.666 144.73 119.675 146.12 117.918 147.35Z" fill="black"/>
<path d="M72.5597 93.3894C74.0425 94.4276 75.5089 94.9633 76.9589 94.9964C78.3924 94.9362 79.8919 94.4311 81.4574 93.4812L136.761 60.2637C138.326 59.3138 139.337 58.221 139.793 56.9853C140.249 55.7497 140.249 54.5222 139.793 53.3029C139.338 52.0836 138.506 51.051 137.298 50.205C135.705 49.0899 134.274 48.6202 133.005 48.7957C131.72 48.878 130.322 49.4133 128.812 50.4017L77.62 81.9555L81.1622 84.4356L93.4468 25.5179C93.7656 23.777 93.7439 22.2886 93.3815 21.0528C93.0577 19.7622 92.1544 18.5977 90.6715 17.5595C89.4633 16.7136 88.2633 16.3235 87.0714 16.3892C85.8246 16.4165 84.7261 16.875 83.7757 17.7646C82.8254 18.6542 82.1716 19.9969 81.8143 21.7928L69.5126 85.1179C69.1553 86.9138 69.1935 88.4955 69.6272 89.8631C70.0445 91.1373 71.0219 92.3128 72.5597 93.3894Z" fill="#EEA124"/>
<path d="M80.5194 93.3894C79.0366 94.4276 77.5702 94.9633 76.1202 94.9964C74.6867 94.9362 73.1872 94.4311 71.6217 93.4812L16.3185 60.2637C14.753 59.3138 13.7423 58.221 13.2862 56.9853C12.8301 55.7497 12.83 54.5222 13.2856 53.3029C13.7413 52.0836 14.5733 51.051 15.7815 50.205C17.3741 49.0899 18.8049 48.6202 20.0736 48.7958C21.3589 48.878 22.7568 49.4133 24.2674 50.4017L75.4592 81.9555L71.9169 84.4356L59.6323 25.518C59.3135 23.777 59.3353 22.2886 59.6976 21.0529C60.0214 19.7622 60.9248 18.5977 62.4076 17.5595C63.6158 16.7136 64.8158 16.3235 66.0077 16.3893C67.2545 16.4166 68.3531 16.875 69.3034 17.7646C70.2537 18.6542 70.9075 19.997 71.2648 21.7928L83.5665 85.1179C83.9238 86.9138 83.8856 88.4955 83.4519 89.8631C83.0346 91.1373 82.0572 92.3128 80.5194 93.3894Z" fill="#EEA124"/>
</svg>