<svg width="583" height="252" viewBox="0 0 583 252" fill="none" xmlns="http://www.w3.org/2000/svg">
<g clip-path="url(#clip0_1102_6936)">
<g clip-path="url(#clip1_1102_6936)">
<path d="M37.4484 74.7837H26.0329V123.098H9.28906V13.1621H26.0329V57.1948H37.4484V13.1621H54.1923V123.098H37.4484V74.7837Z" fill="#F912A9"/>
<path d="M82.305 124.646H79.0793C65.8695 124.646 58.8379 117.35 58.8379 103.644V81.4462H75.2734V100.802C75.2734 105.862 76.8777 108.548 80.7007 108.548C84.5237 108.548 86.128 105.862 86.128 99.017V96.4871C86.128 88.6027 85.3941 85.7609 79.3865 77.8766L68.8221 64.1699C61.7905 54.9339 59.7254 47.7774 59.7254 36.7739V33.2043C59.7254 18.4579 67.0642 11.6133 80.1204 11.6133H83.2095C96.8461 11.6133 102.137 17.7128 102.137 30.8303V49.0077H86.1451V33.0657C86.1451 29.3401 85.4112 26.5156 81.4516 26.5156C77.4921 26.5156 76.6046 29.0455 76.6046 34.2613V36.3407C76.6046 42.5962 77.7822 46.0272 83.3461 53.3224L93.9105 67.1677C101.386 76.9928 103.741 82.6592 103.741 95.1702V98.7398C103.741 114.976 96.8461 124.646 82.3221 124.646" fill="#F912A9"/>
<path d="M147.755 13.1621V29.1177H126.56V57.9341H143.201V74.629H126.56V106.403H148.645V123.098H109.936V13.1621H147.755Z" fill="#F912A9"/>
<path d="M193.633 102.414H181.412L179.175 123.098H164.129L177.702 13.1621H197.672L212.129 123.098H195.886L193.65 102.414M191.847 86.0111L187.375 45.3828L183.058 86.0111H191.847Z" fill="#F912A9"/>
<path d="M232.316 123.098H215.225V13.1621H242.913C254.248 13.1621 260.004 17.8903 260.004 30.1493V49.664C260.004 58.8281 255.621 62.37 252.594 63.6939C256.378 65.3101 260.004 68.2846 260.004 75.6606V114.226C260.004 118.662 260.902 120.725 261.676 122.358V123.098H244.726C243.969 121.911 243.053 119.986 243.053 114.088V80.9906C243.053 76.1076 242.156 74.0444 236.699 74.0444H232.316V123.098ZM232.316 58.3811H236.857C241.54 58.3811 243.053 55.4238 243.053 50.5409V35.1698C243.053 30.4416 241.997 28.0861 236.857 28.0861H232.316V58.3811Z" fill="#F912A9"/>
<path d="M293.998 29.1177V123.098H277.358V29.1177H263.227V13.1621H308.13V29.1177H293.998Z" fill="#F912A9"/>
<path d="M348.481 102.414H336.256L334.019 123.098H318.967L332.545 13.1621H352.504L366.967 123.098H350.718L348.481 102.414ZM346.695 86.0111L342.221 45.3828L337.903 86.0111H346.695Z" fill="#F912A9"/>
<path d="M383.691 13.1621L398.105 72.1187V13.1621H413.419V123.098H399.749L383.691 59.8598V123.098H368.516V13.1621H383.691Z" fill="#F912A9"/>
<path d="M419.613 13.1621H445.514C460.023 13.1621 464.517 21.2947 464.517 34.293V101.227C464.517 114.673 459.431 123.098 445.514 123.098H419.613V13.1621ZM436.526 107.142H440.567C445.653 107.142 447.151 104.477 447.151 98.5796V36.6657C447.151 30.3041 445.514 28.0861 441.316 28.0861H436.526V107.142Z" fill="#F912A9"/>
<path d="M9.28906 126.193H35.1894C49.7159 126.193 54.1923 134.326 54.1923 147.324V214.259C54.1923 227.704 49.1063 236.129 35.1894 236.129H9.28906V126.193ZM26.2018 220.173H30.2427C35.3288 220.173 36.8267 217.508 36.8267 211.611V149.697C36.8267 143.353 35.1894 141.135 30.9917 141.135H26.2018V220.19V220.173Z" fill="#F912A9"/>
<path d="M98.2057 126.193V142.166H77.0182V170.965H93.6496V187.677H77.0182V219.434H99.0964V236.129H60.3867V126.193H98.2057Z" fill="#F912A9"/>
<path d="M125.66 237.677H122.435C109.225 237.677 102.193 230.382 102.193 216.675V194.477H118.629V213.833C118.629 218.893 120.25 221.579 124.056 221.579C127.862 221.579 129.483 218.893 129.483 212.048V209.518C129.483 201.634 128.75 198.792 122.742 190.908L112.178 177.201C105.146 167.965 103.081 160.826 103.081 149.805V146.236C103.081 131.489 110.42 124.645 123.476 124.645H126.565C140.202 124.645 145.492 130.761 145.492 143.862V162.039H129.501V146.097C129.501 142.371 128.767 139.547 124.807 139.547C120.848 139.547 119.96 142.077 119.96 147.293V149.372C119.96 155.627 121.138 159.058 126.702 166.354L137.266 180.199C144.741 190.024 147.097 195.69 147.097 208.201V211.771C147.097 228.008 140.202 237.677 125.678 237.677" fill="#F912A9"/>
<path d="M168.774 126.193H151.742V236.129H168.774V126.193Z" fill="#F912A9"/>
<path d="M191.068 237.677C181.23 237.677 174.967 228.916 174.967 217.476V148.405C174.967 136.084 179.738 124.645 195.701 124.645H198.98C217.025 124.645 219.107 136.378 219.107 149.442V160.726H202.71V148.25C202.71 143.359 201.513 140.681 197.349 140.681C193.775 140.681 192.126 143.359 192.126 148.25V212.862C192.126 218.063 194.209 220.742 197.644 220.742C201.964 220.742 203.908 217.77 203.908 213.605V185.973H196.308V169.038H219.87V236.173H210.327C210.171 235.586 208.835 230.091 207.499 225.338C206.302 229.054 200.646 237.659 192.144 237.659H191.103" fill="#F912A9"/>
<path d="M241.234 126.193L255.66 185.15V126.193H270.968V236.129H257.286L241.234 172.891V236.129H226.064V126.193H241.234Z" fill="#F912A9"/>
<path d="M314.565 237.677H311.339C298.146 237.677 291.098 230.382 291.098 216.675V194.477H307.533V213.833C307.533 218.893 309.137 221.579 312.96 221.579C316.783 221.579 318.388 218.893 318.388 212.048V209.518C318.388 201.634 317.654 198.792 311.646 190.908L301.082 177.201C294.05 167.965 291.985 160.826 291.985 149.805V146.236C291.985 131.489 299.324 124.645 312.38 124.645H315.452C329.089 124.645 334.38 130.761 334.38 143.862V162.039H318.388V146.097C318.388 142.371 317.654 139.547 313.694 139.547C309.735 139.547 308.864 142.077 308.864 147.293V149.372C308.864 155.627 310.042 159.058 315.606 166.354L326.17 180.199C333.646 190.024 336.001 195.69 336.001 208.201V211.771C336.001 228.008 329.106 237.677 314.582 237.677" fill="#F912A9"/>
<path d="M368.879 213.883V188.152H385.548V213.728C385.548 225.633 381.634 237.677 365.28 237.677H361.524C344.401 237.677 340.645 225.477 340.645 214.333V146.811C340.645 135.512 345.607 124.645 360.912 124.645H364.808C383.434 124.645 385.53 136.844 385.53 147.694V167.473H368.862V147.988C368.862 143.229 367.359 140.703 363.166 140.703C358.973 140.703 357.907 143.091 357.907 147.988V213.728C357.907 218.642 359.567 221.307 363.306 221.307C367.359 221.307 368.862 218.33 368.862 213.866" fill="#F912A9"/>
<path d="M418.353 187.815H406.937V236.129H390.193V126.193H406.937V170.226H418.353V126.193H435.097V236.129H418.353V187.815Z" fill="#F912A9"/>
<path d="M487.743 211.651C487.743 227.121 482.478 237.677 466.091 237.677H463.24C447.01 237.677 441.291 227.121 441.291 211.651V150.082C441.291 134.768 447.15 124.645 463.083 124.645H465.933C482.461 124.645 487.725 134.768 487.725 149.926V211.651M470.463 149.182C470.463 143.385 468.504 140.703 464.604 140.703C460.249 140.703 458.588 143.524 458.588 149.182V212.828C458.588 217.586 459.935 221.307 464.744 221.307C469.256 221.307 470.463 217.586 470.463 212.828V149.182Z" fill="#F912A9"/>
<path d="M538.838 211.651C538.838 227.121 533.574 237.677 517.187 237.677H514.336C498.106 237.677 492.387 227.121 492.387 211.651V150.082C492.387 134.768 498.246 124.645 514.178 124.645H517.029C533.557 124.645 538.821 134.768 538.821 149.926V211.651M521.559 149.182C521.559 143.385 519.6 140.703 515.7 140.703C511.345 140.703 509.684 143.524 509.684 149.182V212.828C509.684 217.586 511.03 221.307 515.84 221.307C520.352 221.307 521.559 217.586 521.559 212.828V149.182Z" fill="#F912A9"/>
<path d="M561.76 126.193V219.142H582.193V236.129H545.031V126.193H561.76Z" fill="#F912A9"/>
</g>
</g>
<defs>
<clipPath id="clip0_1102_6936">
<rect width="582.194" height="244.645" fill="white" transform="translate(0 3.87109)"/>
</clipPath>
<clipPath id="clip1_1102_6936">
<rect width="572.903" height="226.064" fill="white" transform="translate(9.28906 11.6133)"/>
</clipPath>
</defs>
</svg>
