<svg width="1919" height="1940" viewBox="0 0 1919 1940" fill="none" xmlns="http://www.w3.org/2000/svg">
<g clip-path="url(#clip0_1102_7003)">
<path d="M148.404 651.929C219.86 633.354 286.19 592.508 336.076 530.606C387.357 466.973 413.204 391.089 414.94 315.249L649.818 781.361L148.404 651.929Z" fill="#BB8DB0"/>
<path d="M371.631 776C392.607 834.985 459.985 862.894 516.526 836.018C489.65 892.559 517.559 959.937 576.543 980.913C517.559 1001.89 489.65 1069.27 516.526 1125.81C459.985 1098.93 392.607 1126.84 371.631 1185.82C350.655 1126.84 283.277 1098.93 226.736 1125.81C253.613 1069.27 225.704 1001.89 166.719 980.913C225.704 959.937 253.613 892.559 226.736 836.018C283.277 862.894 350.655 834.985 371.631 776Z" fill="#FF751F"/>
<path d="M884.027 490.972L637.589 566.705C634.548 522.532 619.796 478.6 592.49 439.724C565.188 400.852 528.873 372.071 488.358 354.222L643.21 148.106L888.171 232.058L884.027 490.972Z" fill="#A1C8E4"/>
<path d="M794.482 1114.26C810.424 1056.3 816.816 985.641 810.511 910.245C804.03 832.746 785.155 762.415 758.685 707.198L998.899 892.944L794.482 1114.26Z" fill="#FF00AE"/>
<path d="M969.153 419.951C898.62 420.909 842.219 478.865 843.178 549.397C843.194 550.618 843.23 551.835 843.28 553.047L1098.6 549.576C1098.61 548.363 1098.62 547.146 1098.6 545.926C1097.64 475.393 1039.69 418.992 969.153 419.951Z" fill="#FCBE6C"/>
<path d="M969.153 419.954C1039.69 418.995 1096.09 361.04 1095.13 290.507C1095.11 289.288 1095.08 288.072 1095.03 286.862L839.71 290.332C839.692 291.543 839.69 292.759 839.707 293.979C840.665 364.511 898.62 420.912 969.153 419.954Z" fill="#FCBE6C"/>
</g>
<g clip-path="url(#clip1_1102_7003)">
<path d="M1771.6 651.929C1700.14 633.354 1633.81 592.508 1583.93 530.606C1532.64 466.973 1506.8 391.089 1505.06 315.249L1270.18 781.361L1771.6 651.929Z" fill="#BB8DB0"/>
<path d="M1548.37 776C1527.39 834.985 1460.02 862.894 1403.48 836.018C1430.35 892.559 1402.44 959.937 1343.46 980.913C1402.44 1001.89 1430.35 1069.27 1403.48 1125.81C1460.02 1098.93 1527.39 1126.84 1548.37 1185.82C1569.35 1126.84 1636.72 1098.93 1693.26 1125.81C1666.39 1069.27 1694.3 1001.89 1753.28 980.913C1694.3 959.937 1666.39 892.559 1693.26 836.018C1636.72 862.894 1569.35 834.985 1548.37 776Z" fill="#FF751F"/>
<path d="M1035.97 490.972L1282.41 566.705C1285.45 522.532 1300.21 478.6 1327.51 439.724C1354.81 400.852 1391.13 372.071 1431.64 354.222L1276.79 148.106L1031.83 232.058L1035.97 490.972Z" fill="#A1C8E4"/>
<path d="M1125.52 1114.26C1109.58 1056.3 1103.18 985.641 1109.49 910.245C1115.97 832.746 1134.85 762.415 1161.32 707.198L921.101 892.944L1125.52 1114.26Z" fill="#FF00AE"/>
<path d="M950.848 419.951C1021.38 420.909 1077.78 478.865 1076.82 549.397C1076.81 550.618 1076.77 551.835 1076.72 553.047L821.404 549.576C821.387 548.363 821.384 547.146 821.401 545.926C822.36 475.393 880.315 418.992 950.848 419.951Z" fill="#FCBE6C"/>
<path d="M950.847 419.954C880.314 418.995 823.914 361.04 824.872 290.507C824.889 289.288 824.924 288.072 824.974 286.862L1080.29 290.332C1080.31 291.543 1080.31 292.759 1080.29 293.979C1079.34 364.511 1021.38 420.912 950.847 419.954Z" fill="#FCBE6C"/>
</g>
<g clip-path="url(#clip2_1102_7003)">
<path d="M1771.6 1288.07C1700.14 1306.65 1633.81 1347.49 1583.93 1409.4C1532.64 1473.03 1506.8 1548.91 1505.06 1624.75L1270.18 1158.64L1771.6 1288.07Z" fill="#BB8DB0"/>
<path d="M1548.37 1164C1527.39 1105.02 1460.02 1077.11 1403.48 1103.98C1430.35 1047.44 1402.44 980.064 1343.46 959.088C1402.44 938.112 1430.35 870.734 1403.48 814.193C1460.02 841.07 1527.39 813.161 1548.37 754.176C1569.35 813.161 1636.72 841.07 1693.26 814.193C1666.39 870.734 1694.3 938.112 1753.28 959.088C1694.3 980.064 1666.39 1047.44 1693.26 1103.98C1636.72 1077.11 1569.35 1105.02 1548.37 1164Z" fill="#FF751F"/>
<path d="M1035.97 1449.03L1282.41 1373.3C1285.45 1417.47 1300.21 1461.4 1327.51 1500.28C1354.81 1539.15 1391.13 1567.93 1431.64 1585.78L1276.79 1791.89L1031.83 1707.94L1035.97 1449.03Z" fill="#A1C8E4"/>
<path d="M1125.52 825.74C1109.58 883.705 1103.18 954.36 1109.49 1029.76C1115.97 1107.25 1134.85 1177.59 1161.32 1232.8L921.101 1047.06L1125.52 825.74Z" fill="#FF00AE"/>
<path d="M950.848 1520.05C1021.38 1519.09 1077.78 1461.14 1076.82 1390.6C1076.81 1389.38 1076.77 1388.17 1076.72 1386.95L821.404 1390.42C821.387 1391.64 821.384 1392.85 821.401 1394.08C822.36 1464.61 880.315 1521.01 950.848 1520.05Z" fill="#FCBE6C"/>
<path d="M950.847 1520.05C880.314 1521.01 823.914 1578.96 824.872 1649.49C824.889 1650.71 824.924 1651.93 824.974 1653.14L1080.29 1649.67C1080.31 1648.46 1080.31 1647.24 1080.29 1646.02C1079.34 1575.49 1021.38 1519.09 950.847 1520.05Z" fill="#FCBE6C"/>
</g>
<g clip-path="url(#clip3_1102_7003)">
<path d="M148.404 1288.07C219.86 1306.65 286.19 1347.49 336.076 1409.39C387.357 1473.03 413.204 1548.91 414.94 1624.75L649.818 1158.64L148.404 1288.07Z" fill="#BB8DB0"/>
<path d="M371.631 1164C392.607 1105.01 459.985 1077.11 516.526 1103.98C489.65 1047.44 517.559 980.063 576.543 959.087C517.559 938.111 489.65 870.733 516.526 814.192C459.985 841.069 392.607 813.16 371.631 754.175C350.655 813.16 283.277 841.069 226.736 814.192C253.613 870.733 225.704 938.111 166.719 959.087C225.704 980.063 253.613 1047.44 226.736 1103.98C283.277 1077.11 350.655 1105.01 371.631 1164Z" fill="#FF751F"/>
<path d="M884.027 1449.03L637.589 1373.3C634.548 1417.47 619.796 1461.4 592.49 1500.28C565.188 1539.15 528.873 1567.93 488.358 1585.78L643.21 1791.89L888.171 1707.94L884.027 1449.03Z" fill="#A1C8E4"/>
<path d="M794.482 825.739C810.425 883.703 816.816 954.358 810.511 1029.75C804.031 1107.25 785.156 1177.58 758.685 1232.8L998.9 1047.06L794.482 825.739Z" fill="#FF00AE"/>
<path d="M969.153 1520.05C898.621 1519.09 842.22 1461.13 843.178 1390.6C843.195 1389.38 843.23 1388.16 843.281 1386.95L1098.6 1390.42C1098.61 1391.64 1098.62 1392.85 1098.6 1394.07C1097.64 1464.61 1039.69 1521.01 969.153 1520.05Z" fill="#FCBE6C"/>
<path d="M969.154 1520.05C1039.69 1521 1096.09 1578.96 1095.13 1649.49C1095.11 1650.71 1095.08 1651.93 1095.03 1653.14L839.71 1649.67C839.693 1648.46 839.691 1647.24 839.707 1646.02C840.666 1575.49 898.621 1519.09 969.154 1520.05Z" fill="#FCBE6C"/>
</g>
<defs>
<clipPath id="clip0_1102_7003">
<rect width="960.001" height="970.001" fill="white"/>
</clipPath>
<clipPath id="clip1_1102_7003">
<rect width="960.001" height="970.001" fill="white" transform="matrix(-1 0 0 1 1920 0)"/>
</clipPath>
<clipPath id="clip2_1102_7003">
<rect width="960.001" height="970.001" fill="white" transform="matrix(-1 0 0 -1 1920 1940)"/>
</clipPath>
<clipPath id="clip3_1102_7003">
<rect width="960.001" height="970.001" fill="white" transform="matrix(1 0 0 -1 0 1940)"/>
</clipPath>
</defs>
</svg>
