<svg width="1920" height="1940" viewBox="0 0 1920 1940" fill="none" xmlns="http://www.w3.org/2000/svg">
<g clip-path="url(#clip0_1222_9773)">
<path d="M460.003 59.8958C488.058 100.6 545.154 108.116 582.788 76.0607C573.844 124.68 608.902 170.369 658.18 174.313C617.476 202.368 609.959 259.464 642.015 297.098C593.395 288.154 547.706 323.212 543.762 372.49C515.708 331.786 458.611 324.269 420.977 356.325C429.922 307.705 394.864 262.016 345.586 258.072C386.289 230.018 393.806 172.921 361.751 135.287C410.37 144.232 456.059 109.174 460.003 59.8958Z" fill="#FCBE6C"/>
<path fill-rule="evenodd" clip-rule="evenodd" d="M636.03 815.427C621.602 718.143 576.948 624.477 502.064 549.592C425.092 472.621 328.277 427.587 228.086 414.489L878.831 169.774L636.03 815.427Z" fill="#FF751F"/>
<path d="M775.505 798.864C875.493 898.852 875.493 1060.97 775.505 1160.95C773.776 1162.68 772.027 1164.38 770.261 1166.05L408.319 804.108C409.988 802.342 411.686 800.593 413.415 798.864C513.403 698.876 675.517 698.876 775.505 798.864Z" fill="#FF00AE"/>
<path d="M775.502 798.861C675.514 698.873 675.514 536.76 775.502 436.772C777.231 435.042 778.98 433.345 780.746 431.675L1142.69 793.617C1141.02 795.383 1139.32 797.132 1137.59 798.861C1037.6 898.85 875.49 898.85 775.502 798.861Z" fill="#FF00AE"/>
<path d="M518.303 389.592C587.302 389.592 643.237 445.528 643.237 514.527C643.237 583.527 587.302 639.462 518.303 639.462C449.303 639.462 393.367 583.527 393.367 514.527C393.367 445.528 449.303 389.592 518.303 389.592Z" fill="#A1C8E4"/>
<path d="M305.495 1149.78L90.6563 1079.98C110.721 1046.77 122.269 1007.84 122.269 966.218C122.268 924.596 110.723 885.67 90.6621 852.468L305.495 782.665L438.858 966.224L305.495 1149.78Z" fill="#BB8DB0"/>
</g>
<g clip-path="url(#clip1_1222_9773)">
<path d="M1460 59.8958C1431.94 100.6 1374.85 108.116 1337.21 76.0607C1346.16 124.68 1311.1 170.369 1261.82 174.313C1302.52 202.368 1310.04 259.464 1277.99 297.098C1326.6 288.154 1372.29 323.212 1376.24 372.49C1404.29 331.786 1461.39 324.269 1499.02 356.325C1490.08 307.705 1525.14 262.016 1574.41 258.072C1533.71 230.018 1526.19 172.921 1558.25 135.287C1509.63 144.232 1463.94 109.174 1460 59.8958Z" fill="#FCBE6C"/>
<path fill-rule="evenodd" clip-rule="evenodd" d="M1283.97 815.427C1298.4 718.143 1343.05 624.477 1417.94 549.592C1494.91 472.621 1591.72 427.587 1691.91 414.489L1041.17 169.774L1283.97 815.427Z" fill="#FF751F"/>
<path d="M1144.5 798.864C1044.51 898.852 1044.51 1060.97 1144.5 1160.95C1146.22 1162.68 1147.97 1164.38 1149.74 1166.05L1511.68 804.108C1510.01 802.342 1508.31 800.593 1506.58 798.864C1406.6 698.876 1244.48 698.876 1144.5 798.864Z" fill="#FF00AE"/>
<path d="M1144.5 798.861C1244.49 698.873 1244.49 536.76 1144.5 436.772C1142.77 435.042 1141.02 433.345 1139.25 431.675L777.312 793.617C778.981 795.383 780.679 797.132 782.408 798.861C882.397 898.85 1044.51 898.85 1144.5 798.861Z" fill="#FF00AE"/>
<path d="M1401.7 389.592C1332.7 389.592 1276.76 445.528 1276.76 514.527C1276.76 583.527 1332.7 639.462 1401.7 639.462C1470.7 639.462 1526.63 583.527 1526.63 514.527C1526.63 445.528 1470.7 389.592 1401.7 389.592Z" fill="#A1C8E4"/>
<path d="M1614.5 1149.78L1829.34 1079.98C1809.28 1046.77 1797.73 1007.84 1797.73 966.218C1797.73 924.596 1809.28 885.67 1829.34 852.468L1614.5 782.665L1481.14 966.224L1614.5 1149.78Z" fill="#BB8DB0"/>
</g>
<g clip-path="url(#clip2_1222_9773)">
<path d="M1460 1880.1C1431.94 1839.4 1374.85 1831.88 1337.21 1863.94C1346.16 1815.32 1311.1 1769.63 1261.82 1765.69C1302.52 1737.63 1310.04 1680.54 1277.99 1642.9C1326.6 1651.85 1372.29 1616.79 1376.24 1567.51C1404.29 1608.21 1461.39 1615.73 1499.02 1583.68C1490.08 1632.29 1525.14 1677.98 1574.41 1681.93C1533.71 1709.98 1526.19 1767.08 1558.25 1804.71C1509.63 1795.77 1463.94 1830.83 1460 1880.1Z" fill="#FCBE6C"/>
<path fill-rule="evenodd" clip-rule="evenodd" d="M1283.97 1124.57C1298.4 1221.86 1343.05 1315.52 1417.94 1390.41C1494.91 1467.38 1591.72 1512.41 1691.91 1525.51L1041.17 1770.23L1283.97 1124.57Z" fill="#FF751F"/>
<path d="M1144.5 1141.14C1044.51 1041.15 1044.51 879.034 1144.5 779.046C1146.22 777.317 1147.97 775.619 1149.74 773.95L1511.68 1135.89C1510.01 1137.66 1508.31 1139.41 1506.58 1141.14C1406.6 1241.12 1244.48 1241.12 1144.5 1141.14Z" fill="#FF00AE"/>
<path d="M1144.5 1141.14C1244.49 1241.13 1244.49 1403.24 1144.5 1503.23C1142.77 1504.96 1141.02 1506.66 1139.25 1508.32L777.312 1146.38C778.981 1144.62 780.679 1142.87 782.408 1141.14C882.397 1041.15 1044.51 1041.15 1144.5 1141.14Z" fill="#FF00AE"/>
<path d="M1401.7 1550.41C1332.7 1550.41 1276.76 1494.47 1276.76 1425.47C1276.76 1356.47 1332.7 1300.54 1401.7 1300.54C1470.7 1300.54 1526.63 1356.47 1526.63 1425.47C1526.63 1494.47 1470.7 1550.41 1401.7 1550.41Z" fill="#A1C8E4"/>
<path d="M1614.5 790.217L1829.34 860.022C1809.28 893.227 1797.73 932.156 1797.73 973.782C1797.73 1015.4 1809.28 1054.33 1829.34 1087.53L1614.5 1157.33L1481.14 973.776L1614.5 790.217Z" fill="#BB8DB0"/>
</g>
<g clip-path="url(#clip3_1222_9773)">
<path d="M460.003 1880.1C488.058 1839.4 545.154 1831.88 582.788 1863.94C573.844 1815.32 608.902 1769.63 658.18 1765.69C617.476 1737.63 609.959 1680.54 642.015 1642.9C593.395 1651.85 547.706 1616.79 543.762 1567.51C515.708 1608.21 458.611 1615.73 420.977 1583.68C429.922 1632.29 394.864 1677.98 345.586 1681.93C386.289 1709.98 393.806 1767.08 361.751 1804.71C410.37 1795.77 456.059 1830.83 460.003 1880.1Z" fill="#FCBE6C"/>
<path fill-rule="evenodd" clip-rule="evenodd" d="M636.03 1124.57C621.602 1221.86 576.948 1315.52 502.064 1390.41C425.092 1467.38 328.277 1512.41 228.086 1525.51L878.831 1770.23L636.03 1124.57Z" fill="#FF751F"/>
<path d="M775.505 1141.14C875.493 1041.15 875.493 879.034 775.505 779.046C773.776 777.317 772.027 775.619 770.261 773.95L408.319 1135.89C409.988 1137.66 411.686 1139.41 413.415 1141.14C513.403 1241.12 675.517 1241.12 775.505 1141.14Z" fill="#FF00AE"/>
<path d="M775.502 1141.14C675.514 1241.13 675.514 1403.24 775.502 1503.23C777.231 1504.96 778.98 1506.66 780.746 1508.32L1142.69 1146.38C1141.02 1144.62 1139.32 1142.87 1137.59 1141.14C1037.6 1041.15 875.49 1041.15 775.502 1141.14Z" fill="#FF00AE"/>
<path d="M518.303 1550.41C587.302 1550.41 643.237 1494.47 643.237 1425.47C643.237 1356.47 587.302 1300.54 518.303 1300.54C449.303 1300.54 393.367 1356.47 393.367 1425.47C393.367 1494.47 449.303 1550.41 518.303 1550.41Z" fill="#A1C8E4"/>
<path d="M305.495 790.217L90.6563 860.022C110.721 893.227 122.269 932.156 122.269 973.782C122.268 1015.4 110.723 1054.33 90.6621 1087.53L305.495 1157.33L438.858 973.776L305.495 790.217Z" fill="#BB8DB0"/>
</g>
<defs>
<clipPath id="clip0_1222_9773">
<rect width="966.691" height="969.999" fill="white"/>
</clipPath>
<clipPath id="clip1_1222_9773">
<rect width="966.691" height="969.999" fill="white" transform="matrix(-1 0 0 1 1920 0)"/>
</clipPath>
<clipPath id="clip2_1222_9773">
<rect width="966.691" height="969.999" fill="white" transform="matrix(-1 0 0 -1 1920 1940)"/>
</clipPath>
<clipPath id="clip3_1222_9773">
<rect width="966.691" height="969.999" fill="white" transform="matrix(1 0 0 -1 0 1940)"/>
</clipPath>
</defs>
</svg>
