<svg width="1920" height="1940" viewBox="0 0 1920 1940" fill="none" xmlns="http://www.w3.org/2000/svg">
<g clip-path="url(#clip0_1222_9671)">
<path d="M471.258 833.593C545.7 833.593 606.048 892.629 606.048 965.453C606.048 1038.28 545.7 1097.31 471.258 1097.31C396.816 1097.31 336.469 1038.28 336.469 965.453C336.469 892.629 396.816 833.593 471.258 833.593Z" fill="#FCBE6C"/>
<path d="M968.483 142.469C988.808 199.621 1054.09 226.663 1108.88 200.622C1082.84 255.406 1109.88 320.691 1167.03 341.015C1109.88 361.34 1082.84 426.625 1108.88 481.409C1054.09 455.368 988.808 482.41 968.483 539.562C948.159 482.41 882.874 455.368 828.09 481.409C854.131 426.625 827.089 361.34 769.937 341.015C827.089 320.691 854.131 255.406 828.09 200.622C882.874 226.663 948.159 199.621 968.483 142.469Z" fill="#BB8DB0"/>
<path d="M1619.52 1146.64C1496.19 1153.92 1381 1200.46 1293.44 1288.02C1203.44 1378.01 1156.78 1497.2 1151.54 1624.43L761.776 759.921L1619.52 1146.64Z" fill="#A1C8E4"/>
<path d="M465.304 771.988L717.871 909.59C731.02 861.975 756.918 817.229 795.416 780.801C833.91 744.376 880.014 720.987 928.278 710.485L804.829 450.714L518.357 488.012L465.304 771.988Z" fill="#FF751F"/>
<path d="M215.835 953.421C215.835 887.985 162.789 834.939 97.3535 834.939C96.2218 834.939 95.0938 834.957 93.9697 834.988L93.9697 1071.85C95.0938 1071.89 96.2218 1071.9 97.3535 1071.9C162.789 1071.9 215.835 1018.86 215.835 953.421Z" fill="#FF00AE"/>
<path d="M215.831 953.422C215.831 1018.86 268.877 1071.9 334.312 1071.9C335.444 1071.9 336.572 1071.89 337.696 1071.85L337.696 834.989C336.572 834.958 335.444 834.94 334.312 834.94C268.877 834.94 215.831 887.986 215.831 953.422Z" fill="#FF00AE"/>
<path d="M564.063 295.854L366.864 190.349C356.92 227.449 337.046 262.395 307.327 290.947C277.61 319.496 241.899 337.954 204.433 346.405L301.953 547.666L524.484 516.977L564.063 295.854Z" fill="#FF751F"/>
</g>
<g clip-path="url(#clip1_1222_9671)">
<path d="M1448.74 833.593C1374.3 833.593 1313.95 892.629 1313.95 965.453C1313.95 1038.28 1374.3 1097.31 1448.74 1097.31C1523.18 1097.31 1583.53 1038.28 1583.53 965.453C1583.53 892.629 1523.18 833.593 1448.74 833.593Z" fill="#FCBE6C"/>
<path d="M951.517 142.469C931.192 199.621 865.907 226.663 811.123 200.622C837.165 255.406 810.123 320.691 752.97 341.015C810.123 361.34 837.165 426.625 811.123 481.409C865.907 455.368 931.192 482.41 951.517 539.562C971.841 482.41 1037.13 455.368 1091.91 481.409C1065.87 426.625 1092.91 361.34 1150.06 341.015C1092.91 320.691 1065.87 255.406 1091.91 200.622C1037.13 226.663 971.841 199.621 951.517 142.469Z" fill="#BB8DB0"/>
<path d="M300.475 1146.64C423.814 1153.92 539.004 1200.46 626.562 1288.02C716.559 1378.01 763.223 1497.2 768.46 1624.43L1158.22 759.921L300.475 1146.64Z" fill="#A1C8E4"/>
<path d="M1454.7 771.988L1202.13 909.59C1188.98 861.975 1163.08 817.229 1124.58 780.801C1086.09 744.376 1039.99 720.987 991.722 710.485L1115.17 450.714L1401.64 488.012L1454.7 771.988Z" fill="#FF751F"/>
<path d="M1704.17 953.421C1704.17 887.985 1757.21 834.939 1822.65 834.939C1823.78 834.939 1824.91 834.957 1826.03 834.988L1826.03 1071.85C1824.91 1071.89 1823.78 1071.9 1822.65 1071.9C1757.21 1071.9 1704.17 1018.86 1704.17 953.421Z" fill="#FF00AE"/>
<path d="M1704.17 953.422C1704.17 1018.86 1651.12 1071.9 1585.69 1071.9C1584.56 1071.9 1583.43 1071.89 1582.3 1071.85L1582.3 834.989C1583.43 834.958 1584.56 834.94 1585.69 834.94C1651.12 834.94 1704.17 887.986 1704.17 953.422Z" fill="#FF00AE"/>
<path d="M1355.94 295.854L1553.14 190.349C1563.08 227.449 1582.95 262.395 1612.67 290.947C1642.39 319.496 1678.1 337.954 1715.57 346.405L1618.05 547.666L1395.52 516.977L1355.94 295.854Z" fill="#FF751F"/>
</g>
<g clip-path="url(#clip2_1222_9671)">
<path d="M1448.74 1106.41C1374.3 1106.41 1313.95 1047.37 1313.95 974.547C1313.95 901.724 1374.3 842.688 1448.74 842.688C1523.18 842.688 1583.53 901.724 1583.53 974.547C1583.53 1047.37 1523.18 1106.41 1448.74 1106.41Z" fill="#FCBE6C"/>
<path d="M951.517 1797.53C931.192 1740.38 865.907 1713.34 811.123 1739.38C837.165 1684.59 810.123 1619.31 752.97 1598.98C810.123 1578.66 837.165 1513.38 811.123 1458.59C865.907 1484.63 931.192 1457.59 951.517 1400.44C971.841 1457.59 1037.13 1484.63 1091.91 1458.59C1065.87 1513.38 1092.91 1578.66 1150.06 1598.98C1092.91 1619.31 1065.87 1684.59 1091.91 1739.38C1037.13 1713.34 971.841 1740.38 951.517 1797.53Z" fill="#BB8DB0"/>
<path d="M300.475 793.362C423.814 786.081 539.004 739.541 626.562 651.983C716.559 561.986 763.223 442.796 768.46 315.57L1158.22 1180.08L300.475 793.362Z" fill="#A1C8E4"/>
<path d="M1454.7 1168.01L1202.13 1030.41C1188.98 1078.02 1163.08 1122.77 1124.58 1159.2C1086.09 1195.62 1039.99 1219.01 991.722 1229.51L1115.17 1489.29L1401.64 1451.99L1454.7 1168.01Z" fill="#FF751F"/>
<path d="M1704.17 986.579C1704.17 1052.01 1757.21 1105.06 1822.65 1105.06C1823.78 1105.06 1824.91 1105.04 1826.03 1105.01L1826.03 868.146C1824.91 868.115 1823.78 868.098 1822.65 868.098C1757.21 868.098 1704.17 921.144 1704.17 986.579Z" fill="#FF00AE"/>
<path d="M1704.17 986.578C1704.17 921.143 1651.12 868.097 1585.69 868.097C1584.56 868.097 1583.43 868.114 1582.3 868.146L1582.3 1105.01C1583.43 1105.04 1584.56 1105.06 1585.69 1105.06C1651.12 1105.06 1704.17 1052.01 1704.17 986.578Z" fill="#FF00AE"/>
<path d="M1355.94 1644.15L1553.14 1749.65C1563.08 1712.55 1582.95 1677.61 1612.67 1649.05C1642.39 1620.5 1678.1 1602.05 1715.57 1593.6L1618.05 1392.33L1395.52 1423.02L1355.94 1644.15Z" fill="#FF751F"/>
</g>
<g clip-path="url(#clip3_1222_9671)">
<path d="M471.258 1106.4C545.7 1106.4 606.048 1047.37 606.048 974.544C606.048 901.721 545.7 842.685 471.258 842.685C396.816 842.685 336.469 901.721 336.469 974.544C336.469 1047.37 396.816 1106.4 471.258 1106.4Z" fill="#FCBE6C"/>
<path d="M968.483 1797.53C988.808 1740.38 1054.09 1713.33 1108.88 1739.38C1082.84 1684.59 1109.88 1619.31 1167.03 1598.98C1109.88 1578.66 1082.84 1513.37 1108.88 1458.59C1054.09 1484.63 988.808 1457.59 968.483 1400.43C948.159 1457.59 882.874 1484.63 828.09 1458.59C854.131 1513.37 827.089 1578.66 769.937 1598.98C827.089 1619.31 854.131 1684.59 828.09 1739.38C882.874 1713.33 948.159 1740.38 968.483 1797.53Z" fill="#BB8DB0"/>
<path d="M1619.52 793.359C1496.19 786.078 1381 739.538 1293.44 651.98C1203.44 561.983 1156.78 442.793 1151.54 315.567L761.776 1180.08L1619.52 793.359Z" fill="#A1C8E4"/>
<path d="M465.304 1168.01L717.871 1030.41C731.02 1078.02 756.918 1122.77 795.416 1159.2C833.91 1195.62 880.014 1219.01 928.278 1229.51L804.829 1489.28L518.357 1451.99L465.304 1168.01Z" fill="#FF751F"/>
<path d="M215.835 986.576C215.835 1052.01 162.789 1105.06 97.3535 1105.06C96.2218 1105.06 95.0938 1105.04 93.9697 1105.01L93.9697 868.144C95.0938 868.112 96.2218 868.095 97.3535 868.095C162.789 868.095 215.835 921.141 215.835 986.576Z" fill="#FF00AE"/>
<path d="M215.831 986.575C215.831 921.14 268.877 868.094 334.312 868.094C335.444 868.094 336.572 868.111 337.696 868.143L337.696 1105.01C336.572 1105.04 335.444 1105.06 334.312 1105.06C268.877 1105.06 215.831 1052.01 215.831 986.575Z" fill="#FF00AE"/>
<path d="M564.063 1644.14L366.864 1749.65C356.92 1712.55 337.046 1677.6 307.327 1649.05C277.61 1620.5 241.899 1602.04 204.433 1593.59L301.953 1392.33L524.484 1423.02L564.063 1644.14Z" fill="#FF751F"/>
</g>
<defs>
<clipPath id="clip0_1222_9671">
<rect width="966.504" height="969.999" fill="white"/>
</clipPath>
<clipPath id="clip1_1222_9671">
<rect width="966.504" height="969.999" fill="white" transform="matrix(-1 0 0 1 1920 0)"/>
</clipPath>
<clipPath id="clip2_1222_9671">
<rect width="966.504" height="969.999" fill="white" transform="matrix(-1 0 0 -1 1920 1940)"/>
</clipPath>
<clipPath id="clip3_1222_9671">
<rect width="966.504" height="969.999" fill="white" transform="matrix(1 0 0 -1 0 1940)"/>
</clipPath>
</defs>
</svg>
