<svg width="1920" height="1940" viewBox="0 0 1920 1940" fill="none" xmlns="http://www.w3.org/2000/svg">
<g clip-path="url(#clip0_1222_9439)">
<path d="M972.788 148.958C1011.41 257.131 1135.52 308.069 1239.34 258.921C1189.94 362.416 1241.65 486.107 1349.74 524.393C1241.65 562.68 1189.94 686.371 1239.34 789.867C1135.52 740.718 1011.41 791.656 972.788 899.829C934.165 791.656 810.055 740.718 706.241 789.867C755.636 686.371 703.931 562.68 595.833 524.393C703.931 486.107 755.636 362.416 706.241 258.921C810.055 308.069 934.165 257.131 972.788 148.958Z" fill="#FCBE6C"/>
<path d="M509.914 975.826C509.914 873.515 592.853 790.576 695.164 790.576C696.935 790.576 698.701 790.601 700.46 790.651L700.46 1161C698.701 1161.05 696.935 1161.08 695.164 1161.08C592.853 1161.08 509.914 1078.14 509.914 975.826Z" fill="#FF751F"/>
<path d="M319.196 845.109C248.682 845.11 191.518 902.273 191.518 972.788C191.518 1043.3 248.682 1100.47 319.196 1100.47C389.711 1100.47 446.875 1043.3 446.875 972.788C446.875 902.273 389.711 845.109 319.196 845.109Z" fill="#FF00AE"/>
<path d="M509.741 975.826C509.741 873.515 426.802 790.576 324.491 790.576C322.72 790.576 320.955 790.601 319.195 790.651L319.195 1161C320.955 1161.05 322.72 1161.08 324.491 1161.08C426.802 1161.08 509.741 1078.14 509.741 975.826Z" fill="#FF751F"/>
<path fill-rule="evenodd" clip-rule="evenodd" d="M302.09 462.314C347.757 467.577 395.45 458.751 438.318 434.001C482.358 408.575 514.387 370.336 532.419 326.712L564.169 650.006L302.09 462.314Z" fill="#BB8DB0"/>
<path d="M1163.16 833.665L1092.9 617.417C1057.65 638.897 1016.25 651.273 971.962 651.273C927.464 651.273 885.883 638.782 850.535 617.116L780.175 833.665L971.667 972.792L1163.16 833.665Z" fill="#A1C8E4"/>
<path fill-rule="evenodd" clip-rule="evenodd" d="M888.78 790.14C843.307 796.876 799.524 817.745 764.522 852.747C728.564 888.705 707.522 933.93 701.396 980.735L587.053 676.675L888.78 790.14Z" fill="#BB8DB0"/>
</g>
<g clip-path="url(#clip1_1222_9439)">
<path d="M947.212 148.958C908.588 257.131 784.478 308.069 680.664 258.921C730.059 362.416 678.354 486.107 570.256 524.393C678.354 562.68 730.059 686.371 680.664 789.867C784.478 740.718 908.588 791.656 947.212 899.829C985.835 791.656 1109.94 740.718 1213.76 789.867C1164.36 686.371 1216.07 562.68 1324.17 524.393C1216.07 486.107 1164.36 362.416 1213.76 258.921C1109.94 308.069 985.835 257.131 947.212 148.958Z" fill="#FCBE6C"/>
<path d="M1410.09 975.826C1410.09 873.515 1327.15 790.576 1224.84 790.576C1223.06 790.576 1221.3 790.601 1219.54 790.651L1219.54 1161C1221.3 1161.05 1223.06 1161.08 1224.84 1161.08C1327.15 1161.08 1410.09 1078.14 1410.09 975.826Z" fill="#FF751F"/>
<path d="M1600.8 845.109C1671.32 845.11 1728.48 902.273 1728.48 972.788C1728.48 1043.3 1671.32 1100.47 1600.8 1100.47C1530.29 1100.47 1473.13 1043.3 1473.12 972.788C1473.12 902.273 1530.29 845.109 1600.8 845.109Z" fill="#FF00AE"/>
<path d="M1410.26 975.826C1410.26 873.515 1493.2 790.576 1595.51 790.576C1597.28 790.576 1599.05 790.601 1600.8 790.651L1600.8 1161C1599.05 1161.05 1597.28 1161.08 1595.51 1161.08C1493.2 1161.08 1410.26 1078.14 1410.26 975.826Z" fill="#FF751F"/>
<path fill-rule="evenodd" clip-rule="evenodd" d="M1617.91 462.314C1572.24 467.577 1524.55 458.751 1481.68 434.001C1437.64 408.575 1405.61 370.336 1387.58 326.712L1355.83 650.006L1617.91 462.314Z" fill="#BB8DB0"/>
<path d="M756.841 833.665L827.104 617.417C862.346 638.897 903.747 651.273 948.038 651.273C992.536 651.273 1034.12 638.782 1069.46 617.116L1139.83 833.665L948.333 972.792L756.841 833.665Z" fill="#A1C8E4"/>
<path fill-rule="evenodd" clip-rule="evenodd" d="M1031.22 790.14C1076.69 796.876 1120.48 817.745 1155.48 852.747C1191.44 888.705 1212.48 933.93 1218.6 980.735L1332.95 676.675L1031.22 790.14Z" fill="#BB8DB0"/>
</g>
<g clip-path="url(#clip2_1222_9439)">
<path d="M947.212 1791.04C908.588 1682.87 784.478 1631.93 680.664 1681.08C730.059 1577.58 678.354 1453.89 570.256 1415.61C678.354 1377.32 730.059 1253.63 680.664 1150.13C784.478 1199.28 908.588 1148.34 947.212 1040.17C985.835 1148.34 1109.94 1199.28 1213.76 1150.13C1164.36 1253.63 1216.07 1377.32 1324.17 1415.61C1216.07 1453.89 1164.36 1577.58 1213.76 1681.08C1109.94 1631.93 985.835 1682.87 947.212 1791.04Z" fill="#FCBE6C"/>
<path d="M1410.09 964.174C1410.09 1066.49 1327.15 1149.42 1224.84 1149.42C1223.06 1149.42 1221.3 1149.4 1219.54 1149.35L1219.54 779C1221.3 778.95 1223.06 778.924 1224.84 778.924C1327.15 778.924 1410.09 861.864 1410.09 964.174Z" fill="#FF751F"/>
<path d="M1600.8 1094.89C1671.32 1094.89 1728.48 1037.73 1728.48 967.212C1728.48 896.697 1671.32 839.533 1600.8 839.533C1530.29 839.533 1473.13 896.697 1473.12 967.212C1473.12 1037.73 1530.29 1094.89 1600.8 1094.89Z" fill="#FF00AE"/>
<path d="M1410.26 964.174C1410.26 1066.49 1493.2 1149.42 1595.51 1149.42C1597.28 1149.42 1599.05 1149.4 1600.8 1149.35L1600.8 779C1599.05 778.95 1597.28 778.924 1595.51 778.924C1493.2 778.924 1410.26 861.864 1410.26 964.174Z" fill="#FF751F"/>
<path fill-rule="evenodd" clip-rule="evenodd" d="M1617.91 1477.69C1572.24 1472.42 1524.55 1481.25 1481.68 1506C1437.64 1531.43 1405.61 1569.66 1387.58 1613.29L1355.83 1289.99L1617.91 1477.69Z" fill="#BB8DB0"/>
<path d="M756.841 1106.34L827.104 1322.58C862.346 1301.1 903.747 1288.73 948.038 1288.73C992.536 1288.73 1034.12 1301.22 1069.46 1322.88L1139.83 1106.34L948.333 967.208L756.841 1106.34Z" fill="#A1C8E4"/>
<path fill-rule="evenodd" clip-rule="evenodd" d="M1031.22 1149.86C1076.69 1143.12 1120.48 1122.26 1155.48 1087.25C1191.44 1051.3 1212.48 1006.07 1218.6 959.265L1332.95 1263.33L1031.22 1149.86Z" fill="#BB8DB0"/>
</g>
<g clip-path="url(#clip3_1222_9439)">
<path d="M972.788 1791.04C1011.41 1682.87 1135.52 1631.93 1239.34 1681.08C1189.94 1577.58 1241.65 1453.89 1349.74 1415.6C1241.65 1377.32 1189.94 1253.63 1239.34 1150.13C1135.52 1199.28 1011.41 1148.34 972.788 1040.17C934.165 1148.34 810.055 1199.28 706.241 1150.13C755.636 1253.63 703.931 1377.32 595.833 1415.6C703.931 1453.89 755.636 1577.58 706.241 1681.08C810.055 1631.93 934.165 1682.87 972.788 1791.04Z" fill="#FCBE6C"/>
<path d="M509.914 964.171C509.914 1066.48 592.853 1149.42 695.164 1149.42C696.935 1149.42 698.701 1149.4 700.46 1149.35L700.46 778.997C698.701 778.947 696.935 778.921 695.164 778.921C592.853 778.921 509.914 861.861 509.914 964.171Z" fill="#FF751F"/>
<path d="M319.196 1094.89C248.682 1094.89 191.518 1037.72 191.518 967.209C191.518 896.694 248.682 839.53 319.196 839.53C389.711 839.53 446.875 896.694 446.875 967.209C446.875 1037.72 389.711 1094.89 319.196 1094.89Z" fill="#FF00AE"/>
<path d="M509.741 964.171C509.741 1066.48 426.802 1149.42 324.491 1149.42C322.72 1149.42 320.955 1149.4 319.195 1149.35L319.195 778.997C320.955 778.947 322.72 778.921 324.491 778.921C426.802 778.921 509.741 861.861 509.741 964.171Z" fill="#FF751F"/>
<path fill-rule="evenodd" clip-rule="evenodd" d="M302.09 1477.68C347.757 1472.42 395.45 1481.25 438.318 1506C482.358 1531.42 514.387 1569.66 532.419 1613.28L564.169 1289.99L302.09 1477.68Z" fill="#BB8DB0"/>
<path d="M1163.16 1106.33L1092.9 1322.58C1057.65 1301.1 1016.25 1288.72 971.962 1288.72C927.464 1288.72 885.883 1301.21 850.535 1322.88L780.175 1106.33L971.667 967.206L1163.16 1106.33Z" fill="#A1C8E4"/>
<path fill-rule="evenodd" clip-rule="evenodd" d="M888.78 1149.86C843.307 1143.12 799.524 1122.25 764.522 1087.25C728.564 1051.29 707.522 1006.07 701.396 959.262L587.053 1263.32L888.78 1149.86Z" fill="#BB8DB0"/>
</g>
<defs>
<clipPath id="clip0_1222_9439">
<rect width="969.758" height="969.998" fill="white"/>
</clipPath>
<clipPath id="clip1_1222_9439">
<rect width="969.758" height="969.998" fill="white" transform="matrix(-1 0 0 1 1920 0)"/>
</clipPath>
<clipPath id="clip2_1222_9439">
<rect width="969.758" height="969.998" fill="white" transform="matrix(-1 0 0 -1 1920 1940)"/>
</clipPath>
<clipPath id="clip3_1222_9439">
<rect width="969.758" height="969.998" fill="white" transform="matrix(1 0 0 -1 0 1940)"/>
</clipPath>
</defs>
</svg>
