<svg width="1920" height="1940" viewBox="0 0 1920 1940" fill="none" xmlns="http://www.w3.org/2000/svg">
<g clip-path="url(#clip0_1909_9400)">
<path d="M461.906 60.1434C490.077 101.016 547.41 108.564 585.199 76.3752C576.218 125.196 611.421 171.074 660.903 175.034C620.031 203.205 612.483 260.538 644.671 298.327C595.85 289.346 549.973 324.549 546.012 374.03C517.841 333.158 460.509 325.61 422.719 357.799C431.701 308.978 396.497 263.1 347.016 259.14C387.888 230.969 395.436 173.636 363.248 135.847C412.068 144.828 457.946 109.625 461.906 60.1434Z" fill="#FCBE6C"/>
<path d="M638.662 818.8C624.174 721.113 579.334 627.061 504.14 551.867C426.85 474.576 329.634 429.356 229.028 416.204L882.467 170.476L638.662 818.8Z" fill="#FF751F"/>
<path d="M778.713 802.169C879.115 902.571 879.116 1065.35 778.714 1165.76C776.978 1167.49 775.221 1169.2 773.448 1170.87L410.008 807.435C411.685 805.662 413.39 803.905 415.127 802.169C515.528 701.767 678.312 701.767 778.713 802.169Z" fill="#FF00AE"/>
<path d="M778.71 802.167C678.309 701.765 678.308 538.981 778.71 438.58C780.446 436.843 782.203 435.138 783.976 433.461L1147.42 796.901C1145.74 798.674 1144.03 800.431 1142.3 802.167C1041.9 902.569 879.112 902.569 778.71 802.167Z" fill="#FF00AE"/>
<path d="M520.447 391.204C589.732 391.204 645.899 447.371 645.899 516.656C645.899 585.941 589.732 642.108 520.447 642.108C451.162 642.108 394.995 585.941 394.995 516.656C394.995 447.371 451.162 391.204 520.447 391.204Z" fill="#A1C8E4"/>
<path d="M306.759 1154.54L91.0313 1084.44C111.179 1051.1 122.773 1012.01 122.773 970.215C122.773 928.421 111.182 889.334 91.0381 855.995L306.759 785.903L440.674 970.221L306.759 1154.54Z" fill="#BB8DB0"/>
</g>
<g clip-path="url(#clip1_1909_9400)">
<path d="M1458.09 60.1434C1429.92 101.016 1372.59 108.564 1334.8 76.3752C1343.78 125.196 1308.58 171.074 1259.1 175.034C1299.97 203.205 1307.52 260.538 1275.33 298.327C1324.15 289.346 1370.03 324.549 1373.99 374.03C1402.16 333.158 1459.49 325.61 1497.28 357.799C1488.3 308.978 1523.5 263.1 1572.98 259.14C1532.11 230.969 1524.56 173.636 1556.75 135.847C1507.93 144.828 1462.05 109.625 1458.09 60.1434Z" fill="#FCBE6C"/>
<path d="M1281.34 818.8C1295.83 721.113 1340.67 627.061 1415.86 551.867C1493.15 474.576 1590.37 429.356 1690.97 416.204L1037.53 170.476L1281.34 818.8Z" fill="#FF751F"/>
<path d="M1141.29 802.169C1040.88 902.571 1040.88 1065.35 1141.29 1165.76C1143.02 1167.49 1144.78 1169.2 1146.55 1170.87L1509.99 807.435C1508.32 805.662 1506.61 803.905 1504.87 802.169C1404.47 701.767 1241.69 701.767 1141.29 802.169Z" fill="#FF00AE"/>
<path d="M1141.29 802.167C1241.69 701.765 1241.69 538.981 1141.29 438.58C1139.55 436.843 1137.8 435.138 1136.02 433.461L772.584 796.901C774.261 798.674 775.966 800.431 777.703 802.167C878.105 902.569 1040.89 902.569 1141.29 802.167Z" fill="#FF00AE"/>
<path d="M1399.55 391.204C1330.27 391.204 1274.1 447.371 1274.1 516.656C1274.1 585.941 1330.27 642.108 1399.55 642.108C1468.84 642.108 1525 585.941 1525 516.656C1525 447.371 1468.84 391.204 1399.55 391.204Z" fill="#A1C8E4"/>
<path d="M1613.24 1154.54L1828.97 1084.44C1808.82 1051.1 1797.23 1012.01 1797.23 970.215C1797.23 928.421 1808.82 889.334 1828.96 855.995L1613.24 785.903L1479.33 970.221L1613.24 1154.54Z" fill="#BB8DB0"/>
</g>
<g clip-path="url(#clip2_1909_9400)">
<path d="M1458.09 1879.86C1429.92 1838.98 1372.59 1831.44 1334.8 1863.62C1343.78 1814.8 1308.58 1768.93 1259.1 1764.97C1299.97 1736.8 1307.52 1679.46 1275.33 1641.67C1324.15 1650.65 1370.03 1615.45 1373.99 1565.97C1402.16 1606.84 1459.49 1614.39 1497.28 1582.2C1488.3 1631.02 1523.5 1676.9 1572.98 1680.86C1532.11 1709.03 1524.56 1766.36 1556.75 1804.15C1507.93 1795.17 1462.05 1830.37 1458.09 1879.86Z" fill="#FCBE6C"/>
<path d="M1281.34 1121.2C1295.83 1218.89 1340.67 1312.94 1415.86 1388.13C1493.15 1465.42 1590.37 1510.64 1690.97 1523.8L1037.53 1769.52L1281.34 1121.2Z" fill="#FF751F"/>
<path d="M1141.29 1137.83C1040.88 1037.43 1040.88 874.645 1141.29 774.244C1143.02 772.507 1144.78 770.802 1146.55 769.125L1509.99 1132.57C1508.32 1134.34 1506.61 1136.09 1504.87 1137.83C1404.47 1238.23 1241.69 1238.23 1141.29 1137.83Z" fill="#FF00AE"/>
<path d="M1141.29 1137.83C1241.69 1238.23 1241.69 1401.02 1141.29 1501.42C1139.55 1503.16 1137.8 1504.86 1136.02 1506.54L772.584 1143.1C774.261 1141.33 775.966 1139.57 777.703 1137.83C878.105 1037.43 1040.89 1037.43 1141.29 1137.83Z" fill="#FF00AE"/>
<path d="M1399.55 1548.8C1330.27 1548.8 1274.1 1492.63 1274.1 1423.34C1274.1 1354.06 1330.27 1297.89 1399.55 1297.89C1468.84 1297.89 1525 1354.06 1525 1423.34C1525 1492.63 1468.84 1548.8 1399.55 1548.8Z" fill="#A1C8E4"/>
<path d="M1613.24 785.46L1828.97 855.555C1808.82 888.897 1797.23 927.987 1797.23 969.785C1797.23 1011.58 1808.82 1050.67 1828.96 1084.01L1613.24 1154.1L1479.33 969.779L1613.24 785.46Z" fill="#BB8DB0"/>
</g>
<g clip-path="url(#clip3_1909_9400)">
<path d="M461.906 1879.86C490.077 1838.98 547.41 1831.44 585.199 1863.62C576.218 1814.8 611.421 1768.93 660.903 1764.97C620.031 1736.8 612.483 1679.46 644.671 1641.67C595.85 1650.65 549.973 1615.45 546.012 1565.97C517.841 1606.84 460.509 1614.39 422.719 1582.2C431.701 1631.02 396.497 1676.9 347.016 1680.86C387.888 1709.03 395.436 1766.36 363.248 1804.15C412.068 1795.17 457.946 1830.37 461.906 1879.86Z" fill="#FCBE6C"/>
<path d="M638.662 1121.2C624.174 1218.89 579.334 1312.94 504.14 1388.13C426.85 1465.42 329.634 1510.64 229.028 1523.8L882.467 1769.52L638.662 1121.2Z" fill="#FF751F"/>
<path d="M778.713 1137.83C879.115 1037.43 879.116 874.645 778.714 774.244C776.978 772.507 775.221 770.802 773.448 769.125L410.008 1132.57C411.685 1134.34 413.39 1136.09 415.127 1137.83C515.528 1238.23 678.312 1238.23 778.713 1137.83Z" fill="#FF00AE"/>
<path d="M778.71 1137.83C678.309 1238.23 678.308 1401.02 778.71 1501.42C780.446 1503.16 782.203 1504.86 783.976 1506.54L1147.42 1143.1C1145.74 1141.33 1144.03 1139.57 1142.3 1137.83C1041.9 1037.43 879.112 1037.43 778.71 1137.83Z" fill="#FF00AE"/>
<path d="M520.447 1548.8C589.732 1548.8 645.899 1492.63 645.899 1423.34C645.899 1354.06 589.732 1297.89 520.447 1297.89C451.162 1297.89 394.995 1354.06 394.995 1423.34C394.995 1492.63 451.162 1548.8 520.447 1548.8Z" fill="#A1C8E4"/>
<path d="M306.759 785.46L91.0313 855.555C111.179 888.897 122.773 927.987 122.773 969.785C122.773 1011.58 111.182 1050.67 91.0381 1084.01L306.759 1154.1L440.674 969.779L306.759 785.46Z" fill="#BB8DB0"/>
</g>
<defs>
<clipPath id="clip0_1909_9400">
<rect width="966.691" height="970" fill="white"/>
</clipPath>
<clipPath id="clip1_1909_9400">
<rect width="966.691" height="970" fill="white" transform="matrix(-1 0 0 1 1920 0)"/>
</clipPath>
<clipPath id="clip2_1909_9400">
<rect width="966.691" height="970" fill="white" transform="matrix(-1 0 0 -1 1920 1940)"/>
</clipPath>
<clipPath id="clip3_1909_9400">
<rect width="966.691" height="970" fill="white" transform="matrix(1 0 0 -1 0 1940)"/>
</clipPath>
</defs>
</svg>
